PathFileType	4	(X/Y/Z)	c:\Git\powerlifing_model_clean\simulations\HC835B\Session1\HC835B_CUT_0004\marker_experimental.trc
DataRate	CameraRate	NumFrames	NumMarkers	Units	OrigDataRate	OrigDataStartFrame	OrigNumFrames
240.000000	240.000000	4	38	mm	240.000000	48	77
Frame#	Time	RPSI			LPSI			RASI			LASI			RTH1			RTH2			RTH3			RTH4			RSK1			RSK2			RSK3			RSK4			RCAL1			RCAL2			RCAL3			RST			RPT			RTN			RFMB			RSMB			RVMB			RFMH			RSMH			RVMH			RPM			LTH1			LTH2			LTH3			LTH4			LSK1			LSK2			LSK3			LSK4			LCAL1			LCAL2			LCAL3			LFMH			LVMH			
		X1	Y1	Z1	X2	Y2	Z2	X3	Y3	Z3	X4	Y4	Z4	X5	Y5	Z5	X6	Y6	Z6	X7	Y7	Z7	X8	Y8	Z8	X9	Y9	Z9	X10	Y10	Z10	X11	Y11	Z11	X12	Y12	Z12	X13	Y13	Z13	X14	Y14	Z14	X15	Y15	Z15	X16	Y16	Z16	X17	Y17	Z17	X18	Y18	Z18	X19	Y19	Z19	X20	Y20	Z20	X21	Y21	Z21	X22	Y22	Z22	X23	Y23	Z23	X24	Y24	Z24	X25	Y25	Z25	X26	Y26	Z26	X27	Y27	Z27	X28	Y28	Z28	X29	Y29	Z29	X30	Y30	Z30	X31	Y31	Z31	X32	Y32	Z32	X33	Y33	Z33	X34	Y34	Z34	X35	Y35	Z35	X36	Y36	Z36	X37	Y37	Z37	X38	Y38	Z38	

49	0.2	54.47912979125978	1033.553100585938	-579.3389892578126	-29.08556175231934	985.2876586914065	-540.5897827148439	70.01454925537111	986.0698852539065	-799.1232910156252	-145.4981079101563	891.9194335937502	-701.7252807617189	264.5370788574219	766.4577636718751	-744.6292114257814	245.7960357666016	745.5834960937501	-798.2791137695315	281.6598205566407	685.7416381835939	-762.7276000976564	255.0936126708985	661.4192504882814	-809.0600585937502	451.4041137695314	327.9690246582032	-572.1900024414064	451.7113342285157	286.3095703125001	-617.9045410156251	471.282928466797	273.7859497070313	-561.7029418945314	461.4663085937501	230.3428192138672	-602.4547729492189	508.7668762207032	150.5169372558594	-434.4738159179689	477.9496459960939	114.5287857055664	-420.7993164062501	541.0129394531251	113.7949676513672	-434.5064392089845	446.0755615234376	105.1490478515625	-484.312957763672	552.4283447265626	105.2846145629883	-497.2322998046876	447.2077026367189	104.635482788086	-546.5864257812501	447.0726013183595	83.09513092041017	-573.7441406250001	491.881317138672	99.59122467041018	-597.0559692382814	554.8610839843751	64.54140472412111	-531.9274291992189	436.6854553222657	48.19433212280275	-613.0051879882814	486.5577697753907	51.01538085937501	-643.7874755859376	553.3721923828126	32.83649063110352	-603.7985229492189	456.1501464843751	37.31991195678712	-690.3948974609376	-170.7091369628907	679.5101928710939	-778.8483886718752	-197.5152435302735	717.8357543945314	-818.879577636719	-186.0001220703125	644.0806274414064	-854.9314575195315	-196.898910522461	684.4841308593751	-899.1788330078127	18.30404090881348	425.8995666503907	-784.3789672851565	26.29512405395509	378.4624328613282	-807.2302856445315	53.62877655029298	384.960906982422	-766.1133422851564	72.52783203125001	343.4661865234376	-799.5881958007815	192.3504791259766	365.2052307128907	-662.4672851562501	185.2307586669922	329.1770629882813	-631.7357177734376	236.1703186035157	347.8073120117188	-655.2460327148439	227.2795104980469	210.4321899414063	-829.0607910156252	156.365966796875	178.7072448730469	-751.5145263671876	
50	0.2041666666666667	48.421199798584	1035.972412109375	-600.1193237304689	-35.56827926635743	987.5191040039065	-559.9262084960939	60.38869094848634	985.6044921875002	-818.6437988281252	-154.3241119384766	893.8304443359377	-719.6362304687501	257.5263671875001	768.799743652344	-759.7834472656251	238.2942199707032	746.1896972656251	-812.5745849609377	275.2602844238282	687.7069091796876	-775.8562622070315	248.2509918212891	661.8097534179689	-820.9963378906252	449.3121643066407	333.5977478027344	-577.4854125976564	450.7213134765626	292.2039489746094	-623.5486450195314	470.3030395507814	280.0035705566407	-567.2652587890626	461.449432373047	236.4809265136719	-608.0739135742189	508.4302978515626	158.0586090087891	-440.1326599121095	477.1800231933595	122.8523254394532	-425.4022216796876	540.3059082031251	121.1171569824219	-438.7493896484376	446.5122985839845	111.8804244995117	-489.0136108398439	552.3739624023439	110.1134643554688	-500.751922607422	448.4194335937501	109.3246612548828	-551.1782226562501	447.9131774902345	85.84899902343751	-576.7961425781251	493.0299072265626	100.6039276123047	-600.7406005859376	554.6201171875001	67.46874237060548	-533.8593139648439	436.8347778320314	48.30140304565431	-613.2696533203126	486.3730773925782	49.90624618530275	-644.4561157226564	553.7334594726564	32.89888000488282	-603.7802124023439	456.1239624023439	37.8125228881836	-690.0567016601564	-183.0542602539063	691.0075073242189	-794.1180419921877	-207.720199584961	722.8233642578126	-836.2210083007815	-196.5856933593751	649.6265258789064	-873.6507568359377	-208.1827850341797	690.6323242187501	-917.1291503906252	6.957263946533205	420.3460083007814	-813.5000000000002	13.75373268127442	373.8077087402344	-838.6660766601565	42.02639770507813	378.1042785644532	-797.8472290039065	59.43639755249025	337.9895019531251	-833.1738891601565	182.8700103759766	351.2575073242188	-697.9402465820314	176.1298980712891	313.0126037597657	-669.7538452148439	226.4775390625001	332.6311645507813	-692.6135864257814	210.1729431152344	203.6606597900391	-872.2879638671877	140.589584350586	169.8160400390625	-794.5133056640627	
51	0.2083333333333333	42.10738372802735	1038.300537109375	-621.1589965820314	-42.32626724243165	989.8381958007815	-579.2671508789064	50.07032775878908	985.4791259765627	-838.0107421875002	-163.1729431152344	895.7712402343752	-737.7681274414064	250.2743072509766	771.4455566406252	-775.2589111328127	230.4422760009766	747.1562500000001	-827.0520019531252	268.5458068847657	690.0902709960939	-789.351989746094	240.9998016357422	662.7025146484376	-833.1844482421877	447.4724121093751	340.0296325683594	-583.5737915039064	449.9026794433595	298.7926330566407	-629.7847900390626	469.2791748046876	286.7021484375001	-573.4818115234376	461.6744995117189	243.1879577636719	-614.5776367187501	508.1558532714845	166.1951293945313	-446.8952636718751	476.5435485839845	132.1447143554688	-430.5267028808595	539.6962280273439	129.1299896240235	-443.657928466797	447.2490844726564	118.8116912841797	-494.7530517578126	552.4340820312501	115.1992721557617	-504.8379516601564	449.8263549804689	114.1120223999024	-556.5383911132814	448.6709899902345	88.72293853759767	-580.3587036132814	494.311492919922	101.7877197265625	-605.5476074218751	554.2719726562501	70.72020721435548	-536.1875000000001	436.4853820800782	48.60593032836915	-613.5956420898439	485.8868103027345	49.19452285766603	-645.1229858398439	554.0548706054689	33.05585098266602	-603.7875366210939	456.3441467285157	38.58289337158204	-689.6473388671876	-189.2725830078125	688.1806640625001	-815.216491699219	-216.6526489257813	725.7998046875001	-854.0881347656252	-206.9334869384766	654.5521240234376	-892.1240844726565	-219.3305664062501	696.1978149414064	-934.7705078125002	-4.237694740295411	414.634490966797	-842.765075683594	1.200797438621521	369.1260681152344	-870.0621337890627	30.59075927734376	370.8370666503907	-829.9226684570315	46.91195678710938	331.9277648925782	-868.034851074219	173.524887084961	337.7319641113282	-733.8466796875001	166.413558959961	297.9632568359376	-707.5589599609376	216.4915771484376	317.6614074707032	-730.9124755859376	192.8931121826172	197.2602539062501	-915.639831542969	124.6227035522461	161.4368896484375	-837.7200317382815	
52	0.2125	35.28816604614259	1040.604736328125	-642.3776245117189	-49.3441505432129	992.0915527343752	-598.6520996093751	39.48429489135743	985.697448730469	-857.3697509765627	-172.1532897949219	897.889099121094	-756.0033569335939	242.7285766601563	774.4156494140627	-791.0598144531252	222.1394958496094	748.4939575195314	-841.7717285156252	261.6577148437501	692.8590087890626	-803.208923339844	233.4759826660157	663.9328002929689	-845.642272949219	445.5140380859376	346.7679748535157	-590.1628417968751	449.2382812500001	305.9670104980469	-636.8056640625001	468.3735656738282	293.7131347656251	-580.3679199218751	462.2344360351564	250.5320587158204	-621.9240112304689	507.6888122558595	174.5550537109375	-454.6319274902345	475.6636657714845	141.6792602539063	-437.1263732910157	538.9862060546876	137.4136199951172	-449.6017456054689	447.9040527343751	125.5191116333008	-501.1778259277345	552.0390625000001	120.384506225586	-509.647430419922	451.2468566894532	119.8424911499024	-564.5704956054689	449.4642639160157	91.87208557128908	-584.3165893554689	495.2832641601564	102.5477752685547	-610.4192504882814	553.5944213867189	74.2588577270508	-538.9385375976564	436.0005187988282	48.983943939209	-613.8054199218751	485.4466552734376	49.06239700317384	-645.7792968750001	554.2962646484376	33.33428955078126	-603.9199829101564	456.2774658203126	39.18309402465821	-689.3223266601564	-198.2954711914063	691.4557495117189	-833.3560791015627	-202.8010559082032	727.5670776367189	-869.0757446289065	-217.1198272705079	659.0247802734376	-910.2849121093752	-230.3904876708985	700.9551391601564	-952.288757324219	-15.35796070098877	408.696258544922	-872.1246337890627	-11.29745101928711	364.3063049316407	-901.4992675781252	18.44700622558594	364.4116821289063	-861.772155761719	33.47153091430665	326.4065246582032	-901.9107055664065	163.9611206054688	324.0178222656251	-770.7606201171877	156.3848724365235	284.1896667480469	-744.6459350585939	206.5108947753907	302.6878662109376	-769.5252685546877	175.2485961914063	191.230224609375	-959.088073730469	108.2461700439453	153.3531341552735	-880.864196777344	
